<svg width="485" height="64" viewBox="0 0 485 64" fill="none" xmlns="http://www.w3.org/2000/svg">
<g clip-path="url(#clip0_8229_2725)">
<path d="M85.8774 10.8898H92.7543C92.9934 10.8898 93.2085 11.0252 93.3121 11.2403L104.317 34.597C104.317 34.597 108.11 43.5271 108.15 43.6147C108.19 43.7023 108.333 43.6625 108.325 43.6147C108.317 43.5669 107.305 33.9518 107.305 29.2358V11.5111C107.305 11.1686 107.584 10.8977 107.919 10.8977H113.847C114.19 10.8977 114.461 11.1766 114.461 11.5111V52.3536C114.461 52.7678 114.126 53.1103 113.704 53.1103H107.05C106.755 53.1103 106.492 52.9431 106.365 52.6802L95.3999 29.3792C95.3999 29.3792 91.5829 20.4173 91.567 20.3854C91.5511 20.3536 91.3837 20.2898 91.3917 20.3854C91.3997 20.481 92.4117 29.9687 92.4117 34.6368V52.4969C92.4117 52.8395 92.1328 53.1103 91.7981 53.1103H85.8694C85.5268 53.1103 85.2559 52.8315 85.2559 52.4969V11.5111C85.2559 11.1686 85.5348 10.8977 85.8694 10.8977L85.8774 10.8898Z" fill="#2D5195"/>
<path d="M151.276 52.3376L137.985 11.3279C137.905 11.073 137.666 10.8977 137.395 10.8977H129.434C129.164 10.8977 128.932 11.073 128.845 11.3279L115.577 52.2818C115.442 52.6961 115.752 53.1183 116.183 53.1183H122.542C122.805 53.1183 123.036 52.943 123.107 52.6881L126.135 42.1091C126.199 41.878 126.414 41.7187 126.661 41.7187H139.881C140.128 41.7187 140.336 41.878 140.407 42.117L143.403 52.6961C143.475 52.951 143.706 53.1262 143.969 53.1262H150.703C151.101 53.1262 151.388 52.7359 151.268 52.3535L151.276 52.3376ZM128.685 35.776C128.327 35.776 128.064 35.4334 128.159 35.0829L129.426 30.6617C130.701 26.2086 133.124 16.8723 133.148 16.7449C133.172 16.6174 133.395 16.6493 133.411 16.7449C133.427 16.8404 135.913 26.2086 137.18 30.6617L138.431 35.0829C138.527 35.4334 138.272 35.776 137.905 35.776H128.677H128.685Z" fill="#2D5195"/>
<path d="M184.601 52.3376L171.309 11.3279C171.229 11.073 170.99 10.8977 170.719 10.8977H162.759C162.488 10.8977 162.257 11.073 162.169 11.3279L148.901 52.2818C148.766 52.6961 149.077 53.1183 149.507 53.1183H155.866C156.129 53.1183 156.36 52.943 156.432 52.6881L159.46 42.1091C159.523 41.878 159.739 41.7187 159.986 41.7187H173.206C173.453 41.7187 173.66 41.878 173.731 42.117L176.728 52.6961C176.799 52.951 177.03 53.1262 177.293 53.1262H184.027C184.425 53.1262 184.712 52.7359 184.593 52.3535L184.601 52.3376ZM162.01 35.776C161.651 35.776 161.388 35.4334 161.484 35.0829L162.751 30.6617C164.026 26.2086 166.448 16.8723 166.472 16.7449C166.496 16.6174 166.719 16.6493 166.735 16.7449C166.751 16.8404 169.237 26.2086 170.504 30.6617L171.755 35.0829C171.851 35.4334 171.596 35.776 171.229 35.776H162.002H162.01Z" fill="#2D5195"/>
<path d="M186.258 46.7931H195.271C195.573 46.7931 195.812 46.5542 195.812 46.2514V17.7486C195.812 17.4459 195.573 17.2069 195.271 17.2069H186.258C185.915 17.2069 185.645 16.9281 185.645 16.5935V11.5111C185.645 11.1686 185.923 10.8977 186.258 10.8977H212.881C213.224 10.8977 213.495 11.1765 213.495 11.5111V16.5935C213.495 16.936 213.216 17.2069 212.881 17.2069H203.869C203.566 17.2069 203.327 17.4459 203.327 17.7486V46.2514C203.327 46.5542 203.566 46.7931 203.869 46.7931H212.881C213.224 46.7931 213.495 47.072 213.495 47.4065V52.4889C213.495 52.8315 213.216 53.1023 212.881 53.1023H186.258C185.915 53.1023 185.645 52.8235 185.645 52.4889V47.4065C185.645 47.064 185.923 46.7931 186.258 46.7931Z" fill="#2D5195"/>
<path d="M210.69 32.1194C210.69 18.33 219.081 10.1169 230.245 10.1169C235.201 10.1169 239.233 12.3714 241.927 14.9604C242.166 15.1914 242.166 15.5658 241.95 15.8127L238.572 19.5807C238.341 19.8356 237.942 19.8516 237.687 19.6126C235.679 17.7804 233.297 16.6412 230.237 16.6412C223.232 16.6412 218.411 22.4246 218.411 31.8884C218.411 41.3522 223.232 47.3427 230.428 47.3427C233.655 47.3427 236.261 45.9566 238.5 43.6544C238.747 43.3995 239.161 43.3915 239.401 43.6544L242.763 47.3029C242.978 47.5339 242.986 47.9004 242.771 48.1393C239.448 51.8436 235.113 53.875 229.671 53.875C219.208 53.875 210.682 46.1159 210.682 32.1115L210.69 32.1194Z" fill="#2D5195"/>
<path d="M63.1513 27.9373H46.7519C40.8551 27.9373 36.0739 23.1576 36.0739 17.2626V0.86831C36.0739 0.390341 35.6835 0 35.2053 0H28.8225C28.3444 0 27.9539 0.390341 27.9539 0.86831V21.1183C27.9539 21.5166 27.4758 21.7157 27.1969 21.4369L13.1243 7.36868C12.7817 7.02614 12.2318 7.02614 11.8892 7.36868L7.37894 11.8775C7.03629 12.2201 7.03629 12.7697 7.37894 13.1123L21.4435 27.1725C21.7224 27.4513 21.5232 27.9293 21.1248 27.9293H0.868579C0.390462 27.9293 0 28.3196 0 28.7976V35.1785C0 35.6565 0.390462 36.0468 0.868579 36.0468H21.1248C21.5232 36.0468 21.7224 36.5248 21.4435 36.8036L7.12394 51.1188C6.78129 51.4613 6.78129 52.011 7.12394 52.3535L11.6342 56.8623C11.9768 57.2049 12.5267 57.2049 12.8693 56.8623L27.1889 42.5472C27.4678 42.2684 27.9459 42.4675 27.9459 42.8658V63.1158C27.9459 63.5937 28.3364 63.9841 28.8145 63.9841H35.1974C35.6755 63.9841 36.066 63.5937 36.066 63.1158V42.8658C36.066 42.4675 36.5441 42.2684 36.823 42.5472L51.1426 56.8623C51.4852 57.2049 52.0351 57.2049 52.3777 56.8623L56.8879 52.3535C57.2306 52.011 57.2306 51.4613 56.8879 51.1188L42.5683 36.8036C42.2894 36.5248 42.4887 36.0468 42.8871 36.0468H63.1433C63.6214 36.0468 64.0119 35.6565 64.0119 35.1785V28.7976C64.0119 28.3196 63.6214 27.9293 63.1433 27.9293L63.1513 27.9373Z" fill="#2D5195"/>
<path d="M50.1381 1.83225C49.9947 4.07073 48.8711 10.9853 40.6316 11.3757C40.2252 11.3916 39.8984 11.7182 39.8984 12.1245V13.0964C39.8984 13.4708 40.1694 13.7815 40.5439 13.8372C42.7273 14.1559 49.7078 15.7571 50.1381 23.2851C50.162 23.6913 50.4808 24.018 50.8872 24.018H51.8035C52.194 24.018 52.5207 23.7152 52.5526 23.3249C52.712 21.0864 53.8595 14.1638 62.0512 13.7735C62.4576 13.7576 62.7843 13.431 62.7843 13.0247V12.1165C62.7843 11.7262 62.4815 11.3916 62.091 11.3677C59.8518 11.2323 52.9351 10.133 52.5446 1.86411C52.5287 1.45784 52.202 1.13123 51.7956 1.13123H50.9987C50.4887 1.13123 50.162 1.43394 50.1381 1.82428V1.83225Z" fill="#06BABA"/>
<path d="M263.276 10.4755H266.025C266.113 10.4755 266.192 10.5233 266.232 10.6029L270.583 19.8437L272.097 23.4045H272.169C272.049 21.6998 271.77 19.5887 271.77 17.7247V10.6985C271.77 10.5711 271.874 10.4755 271.993 10.4755H274.368C274.496 10.4755 274.591 10.579 274.591 10.6985V26.9256C274.591 27.053 274.488 27.1486 274.368 27.1486H271.619C271.531 27.1486 271.452 27.1008 271.412 27.0211L267.061 17.7725L265.547 14.2196H265.475C265.603 15.996 265.881 18.0035 265.881 19.8516V26.9256C265.881 27.053 265.778 27.1486 265.658 27.1486H263.284C263.156 27.1486 263.061 27.045 263.061 26.9256V10.6985C263.061 10.5711 263.164 10.4755 263.284 10.4755H263.276Z" fill="#2D5195"/>
<path d="M288.823 27.1486H291.5C291.652 27.1486 291.763 26.9973 291.716 26.8539L286.456 10.6269C286.424 10.5313 286.337 10.4675 286.241 10.4675H283.07C282.974 10.4675 282.886 10.5313 282.854 10.6269L277.595 26.8539C277.547 26.9973 277.659 27.1486 277.81 27.1486H280.368C280.472 27.1486 280.56 27.0849 280.583 26.9893L281.779 22.8071C281.803 22.7115 281.898 22.6478 281.994 22.6478H287.197C287.301 22.6478 287.389 22.7115 287.413 22.8151L288.592 26.9893C288.616 27.0849 288.711 27.1566 288.807 27.1566L288.823 27.1486ZM282.807 20.3057C282.655 20.3057 282.552 20.1623 282.592 20.0189L283.086 18.2903C283.588 16.5298 284.09 14.6418 284.56 12.7936H284.663C285.118 14.6418 285.651 16.5298 286.153 18.2903L286.648 20.0269C286.687 20.1703 286.584 20.3137 286.432 20.3137H282.815L282.807 20.3057Z" fill="#2D5195"/>
<path d="M296.042 12.9689H291.237C291.109 12.9689 291.014 12.8653 291.014 12.7458V10.6985C291.014 10.5711 291.117 10.4755 291.237 10.4755H304.265C304.393 10.4755 304.489 10.579 304.489 10.6985V12.7458C304.489 12.8733 304.385 12.9689 304.265 12.9689H299.46C299.333 12.9689 299.237 13.0724 299.237 13.1919V26.9256C299.237 27.053 299.134 27.1486 299.014 27.1486H296.496C296.369 27.1486 296.273 27.045 296.273 26.9256V13.1919C296.273 13.0645 296.169 12.9689 296.05 12.9689H296.042Z" fill="#2D5195"/>
<path d="M306.442 24.6552H310.012C310.139 24.6552 310.235 24.5516 310.235 24.4322V13.1919C310.235 13.0645 310.131 12.9689 310.012 12.9689H306.442C306.314 12.9689 306.219 12.8653 306.219 12.7458V10.6985C306.219 10.5711 306.322 10.4755 306.442 10.4755H316.992C317.12 10.4755 317.215 10.579 317.215 10.6985V12.7458C317.215 12.8733 317.112 12.9689 316.992 12.9689H313.422C313.295 12.9689 313.199 13.0724 313.199 13.1919V24.4322C313.199 24.5596 313.303 24.6552 313.422 24.6552H316.992C317.12 24.6552 317.215 24.7588 317.215 24.8783V26.9256C317.215 27.053 317.112 27.1486 316.992 27.1486H306.442C306.314 27.1486 306.219 27.045 306.219 26.9256V24.8783C306.219 24.7508 306.322 24.6552 306.442 24.6552Z" fill="#2D5195"/>
<path d="M319.287 18.7363C319.287 13.2556 321.981 10.1727 325.845 10.1727C329.71 10.1727 332.403 13.2556 332.403 18.7363C332.403 24.217 329.71 27.4593 325.845 27.4593C321.981 27.4593 319.287 24.3286 319.287 18.7363ZM329.359 18.7363C329.359 14.9126 327.973 12.7458 325.853 12.7458C323.734 12.7458 322.347 14.9046 322.347 18.7363C322.347 22.568 323.734 24.8782 325.853 24.8782C327.973 24.8782 329.359 22.6716 329.359 18.7363Z" fill="#2D5195"/>
<path d="M334.762 10.4755H337.511C337.599 10.4755 337.679 10.5233 337.718 10.6029L342.069 19.8437L343.583 23.4045H343.655C343.535 21.6998 343.257 19.5887 343.257 17.7247V10.6985C343.257 10.5711 343.36 10.4755 343.48 10.4755H345.854C345.982 10.4755 346.077 10.579 346.077 10.6985V26.9256C346.077 27.053 345.974 27.1486 345.854 27.1486H343.105C343.018 27.1486 342.938 27.1008 342.898 27.0211L338.547 17.7725L337.033 14.2196H336.961C337.089 15.996 337.368 18.0035 337.368 19.8516V26.9256C337.368 27.053 337.264 27.1486 337.145 27.1486H334.77C334.642 27.1486 334.547 27.045 334.547 26.9256V10.6985C334.547 10.5711 334.65 10.4755 334.77 10.4755H334.762Z" fill="#2D5195"/>
<path d="M360.348 27.1486H363.026C363.177 27.1486 363.289 26.9973 363.241 26.8539L357.982 10.6269C357.95 10.5313 357.862 10.4675 357.767 10.4675H354.595C354.499 10.4675 354.412 10.5313 354.38 10.6269L349.121 26.8539C349.073 26.9973 349.184 27.1486 349.336 27.1486H351.894C351.997 27.1486 352.085 27.0849 352.109 26.9893L353.304 22.8071C353.328 22.7115 353.424 22.6478 353.519 22.6478H358.723C358.826 22.6478 358.914 22.7115 358.938 22.8151L360.117 26.9893C360.141 27.0849 360.237 27.1566 360.332 27.1566L360.348 27.1486ZM354.324 20.3057C354.173 20.3057 354.069 20.1623 354.109 20.0189L354.603 18.2903C355.105 16.5298 355.607 14.6418 356.077 12.7936H356.181C356.635 14.6418 357.169 16.5298 357.671 18.2903L358.165 20.0269C358.205 20.1703 358.101 20.3137 357.95 20.3137H354.332L354.324 20.3057Z" fill="#2D5195"/>
<path d="M366.532 10.4755H369.034C369.161 10.4755 369.257 10.579 369.257 10.6985V24.4322C369.257 24.5596 369.361 24.6552 369.48 24.6552H376.859C376.987 24.6552 377.082 24.7588 377.082 24.8783V26.9256C377.082 27.053 376.979 27.1486 376.859 27.1486H366.532C366.404 27.1486 366.309 27.045 366.309 26.9256V10.6985C366.309 10.5711 366.412 10.4755 366.532 10.4755Z" fill="#2D5195"/>
<path d="M397.825 27.1486H400.502C400.654 27.1486 400.765 26.9973 400.718 26.8539L395.458 10.6269C395.426 10.5313 395.339 10.4675 395.243 10.4675H392.072C391.976 10.4675 391.888 10.5313 391.856 10.6269L386.597 26.8539C386.549 26.9973 386.661 27.1486 386.812 27.1486H389.37C389.474 27.1486 389.561 27.0849 389.585 26.9893L390.781 22.8071C390.805 22.7115 390.9 22.6478 390.996 22.6478H396.199C396.303 22.6478 396.391 22.7115 396.414 22.8151L397.594 26.9893C397.618 27.0849 397.713 27.1566 397.809 27.1566L397.825 27.1486ZM391.801 20.3057C391.649 20.3057 391.546 20.1623 391.585 20.0189L392.08 18.2903C392.582 16.5298 393.084 14.6418 393.554 12.7936H393.657C394.112 14.6418 394.645 16.5298 395.147 18.2903L395.642 20.0269C395.681 20.1703 395.578 20.3137 395.426 20.3137H391.809L391.801 20.3057Z" fill="#2D5195"/>
<path d="M403.754 10.6985C403.754 10.5711 403.857 10.4755 403.977 10.4755H409.236C412.886 10.4755 415.595 11.75 415.595 15.6136C415.595 19.4772 412.838 21.0226 409.236 21.0226H406.949C406.822 21.0226 406.726 21.1262 406.726 21.2457V26.9256C406.726 27.053 406.623 27.1486 406.503 27.1486H403.985C403.858 27.1486 403.762 27.045 403.762 26.9256V10.6985H403.754ZM409.005 18.6487C411.483 18.6487 412.671 17.653 412.671 15.6057C412.671 13.5584 411.428 12.8414 409.005 12.8414H406.949C406.822 12.8414 406.726 12.945 406.726 13.0645V18.4257C406.726 18.5531 406.83 18.6487 406.949 18.6487H409.005Z" fill="#2D5195"/>
<path d="M418.041 10.6985C418.041 10.5711 418.145 10.4755 418.264 10.4755H423.523C427.173 10.4755 429.882 11.75 429.882 15.6136C429.882 19.4772 427.125 21.0226 423.523 21.0226H421.236C421.109 21.0226 421.013 21.1262 421.013 21.2457V26.9256C421.013 27.053 420.91 27.1486 420.79 27.1486H418.272C418.145 27.1486 418.049 27.045 418.049 26.9256V10.6985H418.041ZM423.284 18.6487C425.763 18.6487 426.95 17.653 426.95 15.6057C426.95 13.5584 425.707 12.8414 423.284 12.8414H421.228C421.101 12.8414 421.005 12.945 421.005 13.0645V18.4257C421.005 18.5531 421.109 18.6487 421.228 18.6487H423.284Z" fill="#2D5195"/>
<path d="M432.401 10.4755H434.903C435.031 10.4755 435.126 10.579 435.126 10.6985V24.4322C435.126 24.5596 435.23 24.6552 435.349 24.6552H442.728C442.856 24.6552 442.951 24.7588 442.951 24.8783V26.9256C442.951 27.053 442.848 27.1486 442.728 27.1486H432.401C432.273 27.1486 432.178 27.045 432.178 26.9256V10.6985C432.178 10.5711 432.281 10.4755 432.401 10.4755Z" fill="#2D5195"/>
<path d="M444.895 24.6552H448.465C448.592 24.6552 448.688 24.5516 448.688 24.4322V13.1919C448.688 13.0645 448.584 12.9689 448.465 12.9689H444.895C444.767 12.9689 444.672 12.8653 444.672 12.7458V10.6985C444.672 10.5711 444.775 10.4755 444.895 10.4755H455.445C455.573 10.4755 455.669 10.579 455.669 10.6985V12.7458C455.669 12.8733 455.565 12.9689 455.445 12.9689H451.875C451.748 12.9689 451.652 13.0724 451.652 13.1919V24.4322C451.652 24.5596 451.756 24.6552 451.875 24.6552H455.445C455.573 24.6552 455.669 24.7588 455.669 24.8783V26.9256C455.669 27.053 455.565 27.1486 455.445 27.1486H444.895C444.767 27.1486 444.672 27.045 444.672 26.9256V24.8783C444.672 24.7508 444.775 24.6552 444.895 24.6552Z" fill="#2D5195"/>
<path d="M458.864 10.4755H469.111C469.239 10.4755 469.334 10.579 469.334 10.6985V12.7458C469.334 12.8733 469.231 12.9689 469.111 12.9689H461.836C461.709 12.9689 461.613 13.0724 461.613 13.1919V17.0077C461.613 17.1352 461.717 17.2308 461.836 17.2308H467.932C468.06 17.2308 468.155 17.3343 468.155 17.4538V19.5011C468.155 19.6286 468.052 19.7242 467.932 19.7242H461.836C461.709 19.7242 461.613 19.8277 461.613 19.9472V24.4242C461.613 24.5516 461.717 24.6472 461.836 24.6472H469.366C469.494 24.6472 469.589 24.7508 469.589 24.8703V26.9176C469.589 27.045 469.486 27.1406 469.366 27.1406H458.864C458.736 27.1406 458.641 27.0371 458.641 26.9176V10.6985C458.641 10.5711 458.744 10.4755 458.864 10.4755Z" fill="#2D5195"/>
<path d="M472.324 10.6985C472.324 10.5711 472.428 10.4755 472.547 10.4755H476.691C481.616 10.4755 484.572 13.2238 484.572 18.7364C484.572 24.2489 481.616 27.1486 476.85 27.1486H472.547C472.42 27.1486 472.324 27.045 472.324 26.9256V10.6985ZM476.508 24.7428C479.687 24.7428 481.512 22.8389 481.512 18.7364C481.512 14.6338 479.687 12.8812 476.508 12.8812H475.512C475.384 12.8812 475.289 12.9848 475.289 13.1043V24.5198C475.289 24.6472 475.392 24.7428 475.512 24.7428H476.508Z" fill="#2D5195"/>
<path d="M273.069 53.1661H275.747C275.898 53.1661 276.009 53.0147 275.962 52.8713L270.702 36.6443C270.67 36.5487 270.583 36.485 270.487 36.485H267.316C267.22 36.485 267.132 36.5487 267.101 36.6443L261.841 52.8713C261.793 53.0147 261.905 53.1661 262.056 53.1661H264.614C264.718 53.1661 264.806 53.1024 264.83 53.0068L266.025 48.8245C266.049 48.729 266.144 48.6652 266.24 48.6652H271.443C271.547 48.6652 271.635 48.7289 271.659 48.8325L272.838 53.0068C272.862 53.1024 272.958 53.1741 273.053 53.1741L273.069 53.1661ZM267.053 46.3232C266.901 46.3232 266.798 46.1798 266.838 46.0364L267.332 44.3077C267.834 42.5472 268.336 40.6592 268.806 38.8111H268.909C269.364 40.6592 269.898 42.5472 270.4 44.3077L270.894 46.0444C270.933 46.1877 270.83 46.3311 270.678 46.3311H267.061L267.053 46.3232Z" fill="#2D5195"/>
<path d="M279.141 50.6727H282.711C282.839 50.6727 282.934 50.5691 282.934 50.4496V39.2094C282.934 39.0819 282.831 38.9863 282.711 38.9863H279.141C279.014 38.9863 278.918 38.8828 278.918 38.7633V36.716C278.918 36.5885 279.022 36.4929 279.141 36.4929H289.692C289.819 36.4929 289.915 36.5965 289.915 36.716V38.7633C289.915 38.8907 289.811 38.9863 289.692 38.9863H286.122C285.994 38.9863 285.898 39.0899 285.898 39.2094V50.4496C285.898 50.5771 286.002 50.6727 286.122 50.6727H289.692C289.819 50.6727 289.915 50.7762 289.915 50.8957V52.943C289.915 53.0705 289.811 53.1661 289.692 53.1661H279.141C279.014 53.1661 278.918 53.0625 278.918 52.943V50.8957C278.918 50.7682 279.022 50.6727 279.141 50.6727Z" fill="#2D5195"/>
<path d="M299.174 44.8733C299.174 39.4245 302.489 36.1823 306.895 36.1823C308.864 36.1823 310.457 37.0824 311.525 38.1101C311.613 38.1977 311.613 38.3331 311.525 38.4207L310.171 39.9343C310.083 40.0299 309.947 40.0299 309.852 39.9423C309.055 39.2094 308.107 38.7553 306.895 38.7553C304.13 38.7553 302.226 41.0416 302.226 44.7777C302.226 48.5138 304.13 50.8798 306.975 50.8798C308.258 50.8798 309.294 50.3222 310.178 49.4061C310.266 49.3105 310.418 49.3105 310.505 49.4061L311.86 50.8718C311.94 50.9594 311.94 51.0949 311.86 51.1825C310.545 52.6483 308.832 53.4608 306.68 53.4608C302.545 53.4608 299.182 50.3939 299.182 44.8653L299.174 44.8733Z" fill="#2D5195"/>
<path d="M313.74 44.7538C313.74 39.2731 316.434 36.1902 320.298 36.1902C324.163 36.1902 326.857 39.2731 326.857 44.7538C326.857 50.2345 324.163 53.4767 320.298 53.4767C316.434 53.4767 313.74 50.346 313.74 44.7538ZM323.805 44.7538C323.805 40.93 322.418 38.7632 320.298 38.7632C318.179 38.7632 316.792 40.9221 316.792 44.7538C316.792 48.5855 318.179 50.8957 320.298 50.8957C322.418 50.8957 323.805 48.6891 323.805 44.7538Z" fill="#2D5195"/>
<path d="M329.836 36.4929H332.585C332.673 36.4929 332.753 36.5407 332.793 36.6204L337.143 45.8611L338.657 49.422H338.729C338.61 47.7172 338.331 45.6062 338.331 43.7421V36.716C338.331 36.5885 338.434 36.4929 338.554 36.4929H340.929C341.056 36.4929 341.152 36.5965 341.152 36.716V52.943C341.152 53.0705 341.048 53.1661 340.929 53.1661H338.179C338.092 53.1661 338.012 53.1183 337.972 53.0386L333.621 43.7899L332.107 40.237H332.036C332.163 42.0135 332.442 44.0209 332.442 45.8691V52.943C332.442 53.0705 332.338 53.1661 332.219 53.1661H329.844C329.717 53.1661 329.621 53.0625 329.621 52.943V36.716C329.621 36.5885 329.725 36.4929 329.844 36.4929H329.836Z" fill="#2D5195"/>
<path d="M343.543 50.8638L344.977 49.167C345.057 49.0714 345.2 49.0635 345.288 49.1431C346.531 50.1947 348.101 50.8957 349.774 50.8957C351.719 50.8957 352.739 50.0433 352.739 48.8803C352.739 47.3986 351.599 47.0002 349.966 46.3072L347.671 45.3114C345.918 44.6263 344.109 43.3358 344.109 40.8902C344.109 38.2375 346.499 36.1902 349.902 36.1902C351.87 36.1902 353.735 36.9231 355.09 38.1658C355.177 38.2455 355.185 38.3809 355.113 38.4765L353.87 40.0219C353.791 40.1175 353.655 40.1334 353.56 40.0538C352.476 39.2333 351.36 38.7632 349.767 38.7632C348.173 38.7632 347.113 39.4722 347.113 40.707C347.113 42.0055 348.444 42.4755 349.958 43.057L352.141 44.0129C354.261 44.8255 355.767 46.1001 355.767 48.5058C355.767 51.2143 353.488 53.4688 349.583 53.4688C347.312 53.4688 345.161 52.6323 343.543 51.1825C343.455 51.1028 343.447 50.9594 343.519 50.8638H343.543Z" fill="#2D5195"/>
<path d="M358.244 44.7538C358.244 39.2731 360.938 36.1902 364.802 36.1902C368.667 36.1902 371.36 39.2731 371.36 44.7538C371.36 50.2345 368.667 53.4767 364.802 53.4767C360.938 53.4767 358.244 50.346 358.244 44.7538ZM368.309 44.7538C368.309 40.93 366.922 38.7632 364.802 38.7632C362.683 38.7632 361.296 40.9221 361.296 44.7538C361.296 48.5855 362.683 50.8957 364.802 50.8957C366.922 50.8957 368.309 48.6891 368.309 44.7538Z" fill="#2D5195"/>
<path d="M386.533 52.8315L382.876 46.4427C382.804 46.3232 382.868 46.1798 382.995 46.124C384.86 45.3911 386.087 43.8616 386.087 41.4399C386.087 37.7118 383.394 36.485 379.935 36.485H374.581C374.453 36.485 374.357 36.5885 374.357 36.708V52.9351C374.357 53.0625 374.461 53.1581 374.581 53.1581H377.115C377.242 53.1581 377.338 53.0546 377.338 52.9351V46.8728C377.338 46.7454 377.441 46.6498 377.561 46.6498H379.672C379.752 46.6498 379.832 46.6976 379.872 46.7693L383.33 53.0466C383.37 53.1183 383.442 53.1661 383.529 53.1661H386.342C386.518 53.1661 386.621 52.9829 386.533 52.8315ZM377.338 39.0899C377.338 38.9625 377.441 38.8669 377.561 38.8669H379.625C381.912 38.8669 383.147 39.536 383.147 41.4479C383.147 43.3598 381.904 44.2838 379.625 44.2838H377.561C377.433 44.2838 377.338 44.1803 377.338 44.0608V39.0899Z" fill="#2D5195"/>
<path d="M394.071 38.9863H389.266C389.139 38.9863 389.043 38.8828 389.043 38.7633V36.716C389.043 36.5885 389.147 36.4929 389.266 36.4929H402.295C402.422 36.4929 402.518 36.5965 402.518 36.716V38.7633C402.518 38.8907 402.414 38.9863 402.295 38.9863H397.49C397.362 38.9863 397.267 39.0899 397.267 39.2094V52.943C397.267 53.0705 397.163 53.1661 397.043 53.1661H394.525C394.398 53.1661 394.302 53.0625 394.302 52.943V39.2094C394.302 39.0819 394.199 38.9863 394.079 38.9863H394.071Z" fill="#2D5195"/>
<path d="M405.706 50.6727H409.275C409.403 50.6727 409.499 50.5691 409.499 50.4496V39.2094C409.499 39.0819 409.395 38.9863 409.275 38.9863H405.706C405.578 38.9863 405.482 38.8828 405.482 38.7633V36.716C405.482 36.5885 405.586 36.4929 405.706 36.4929H416.256C416.383 36.4929 416.479 36.5965 416.479 36.716V38.7633C416.479 38.8907 416.376 38.9863 416.256 38.9863H412.686C412.559 38.9863 412.463 39.0899 412.463 39.2094V50.4496C412.463 50.5771 412.567 50.6727 412.686 50.6727H416.256C416.383 50.6727 416.479 50.7762 416.479 50.8957V52.943C416.479 53.0705 416.376 53.1661 416.256 53.1661H405.706C405.578 53.1661 405.482 53.0625 405.482 52.943V50.8957C405.482 50.7682 405.586 50.6727 405.706 50.6727Z" fill="#2D5195"/>
<path d="M419.467 46.8011V36.716C419.467 36.5885 419.571 36.4929 419.69 36.4929H422.224C422.352 36.4929 422.447 36.5965 422.447 36.716V47.0242C422.447 49.7247 423.563 50.8957 425.332 50.8957C427.101 50.8957 428.272 49.7326 428.272 47.0242V36.716C428.272 36.5885 428.376 36.4929 428.495 36.4929H430.91C431.037 36.4929 431.133 36.5965 431.133 36.716V46.8011C431.133 51.3498 428.989 53.4688 425.332 53.4688C421.674 53.4688 419.459 51.3498 419.459 46.8011H419.467Z" fill="#2D5195"/>
<path d="M434.346 36.493H437.239C437.334 36.493 437.422 36.5567 437.454 36.6523L439.39 43.0013L440.076 45.5027H440.179L440.849 43.0013L442.801 36.6523C442.833 36.5567 442.92 36.493 443.016 36.493H445.909C446.036 36.493 446.132 36.5965 446.132 36.716V52.943C446.132 53.0705 446.028 53.1661 445.909 53.1661H443.733C443.606 53.1661 443.51 53.0625 443.51 52.943V46.4427C443.51 44.6901 443.805 41.2248 443.94 39.6077H443.861L442.753 43.4713V43.4793L440.968 48.5935C440.936 48.6812 440.849 48.7449 440.753 48.7449H439.39C439.295 48.7449 439.207 48.6812 439.175 48.5935L437.406 43.4793C437.406 43.4793 437.406 43.4713 437.406 43.4633L436.33 39.5997H436.259C436.434 41.2169 436.689 44.6821 436.689 46.4347V52.9351C436.689 53.0625 436.585 53.1581 436.466 53.1581H434.346C434.219 53.1581 434.123 53.0546 434.123 52.9351V36.708C434.123 36.5806 434.227 36.485 434.346 36.485V36.493Z" fill="#2D5195"/>
</g>
<defs>
<clipPath id="clip0_8229_2725">
<rect width="484.571" height="64" fill="white"/>
</clipPath>
</defs>
</svg>
