<?xml version="1.0" encoding="UTF-8" standalone="no"?>
<svg xmlns="http://www.w3.org/2000/svg"
     xmlns:xlink="http://www.w3.org/1999/xlink"
     width="6in"
     height="9in"
     viewBox="2041.5 37.5 1800 2700"
     version="1.1">
    <title>AI-Augmented Organizations Front Cover</title>
    <desc>Front cover only SVG composition for AI-Augmented Organizations.</desc>

    <defs>
        <style>
            .guide {
            stroke: #64748b;
            stroke-width: 2;
            stroke-dasharray: 10 10;
            opacity: 0.9;
            }
            .trim {
            stroke: #0f172a;
            stroke-width: 3;
            fill: none;
            }
            .safe {
            stroke: #94a3b8;
            stroke-width: 2;
            stroke-dasharray: 8 8;
            fill: none;
            }
            .panel-label {
            font-family: Montserrat, Arial, sans-serif;
            font-size: 28px;
            font-weight: 700;
            letter-spacing: 2px;
            fill: #0f172a;
            opacity: 0.55;
            }
            .series {
            font-family: Montserrat, Arial, sans-serif;
            font-size: 42px;
            font-weight: 500;
            letter-spacing: 6px;
            fill: #D7DEE7;
            }
            .title {
            font-family: Montserrat, Arial, sans-serif;
            font-size: 152px;
            font-weight: 800;
            letter-spacing: 1px;
            fill: #FFFFFF;
            }
                .subtitle {
                font-family: 'Aptos', 'Montserrat', sans-serif;
                font-size: 72px;
                font-weight: 500;
                letter-spacing: 1px;
                fill: #F3F4F6;
                }
                .subtitle-emphasis {
                font-weight: 700;
                }
            .author {
            font-family: Montserrat, Arial, sans-serif;
            font-size: 64px;
            font-weight: 500;
            letter-spacing: 0.5px;
            fill: #DCE0E6;
            }
            .back-hook {
            font-family: Montserrat, Arial, sans-serif;
            font-size: 44px;
            font-weight: 700;
            line-height: 1.2;
            fill: #FFFFFF;
            }
            .back-body {
            font-family: "Source Serif Pro", Source Sans Pro, serif;
            font-size: 30px;
            font-weight: 400;
            fill: #F5F7FA;
            }
            .back-head {
            font-family: Montserrat, Arial, sans-serif;
            font-size: 28px;
            font-weight: 700;
            letter-spacing: 1px;
            fill: #FFFFFF;
            }
            .spine-title {
            font-family: Montserrat, Arial, sans-serif;
            font-size: 84px;
            font-weight: 700;
            letter-spacing: 1px;
            fill: #FFFFFF;
            }
            .spine-author {
            font-family: Montserrat, Arial, sans-serif;
            font-size: 42px;
            font-weight: 500;
            fill: #E5E7EB;
            }
            .pp-mark {
            font-family: Montserrat, Arial, sans-serif;
            font-size: 24px;
            font-weight: 700;
            fill: #FFFFFF;
            }
            .placeholder {
            fill: rgba(255,255,255,0.10);
            stroke: rgba(255,255,255,0.35);
            stroke-width: 3;
            stroke-dasharray: 12 10;
            }
            .placeholder-text {
            font-family: Montserrat, Arial, sans-serif;
            font-size: 30px;
            font-weight: 600;
            fill: rgba(255,255,255,0.75);
            letter-spacing: 1px;
            }
            .cls-1 {
            stroke: #003456;
            stroke-linecap: round;
            stroke-linejoin: round;
            stroke-width: 5px;
            }
            .cls-font {
            font-family: Arial, Helvetica, "Liberation Sans", "Nimbus Sans", "Noto Sans", "DejaVu Sans", sans-serif;
            font-weight: 300;
            font-size: 250px;
            fill: #ffffff;
            letter-spacing: -0.05em;
            }
            .cls-1, .cls-2, .cls-3 {
            fill: #fff;
            }
            .cls-3 {
            fill-rule: evenodd;
            }
            .cls-4 { fill: url(#grad-navy); }
            .gold-light {
            fill: #82D2F1;
            }
            .gold-medium {
            }
            .gold-medium2 {
            fill: url(#grad2);
            }
            .gold-medium3 {
            fill: url(#grad1);
            }
            .gold-dark {
            fill: #3A70AF;
            }
        </style>

        <linearGradient id="blueBg" x1="0%" y1="0%" x2="0%" y2="100%">
            <stop offset="0%" stop-color="#183B8C"/>
            <stop offset="50%" stop-color="#1D4ED8"/>
            <stop offset="100%" stop-color="#2563EB"/>
        </linearGradient>

        <linearGradient id="backBg" x1="0%" y1="0%" x2="0%" y2="100%">
            <stop offset="0%" stop-color="#2E2407"/>
            <stop offset="50%" stop-color="#8D6D16"/>
            <stop offset="100%" stop-color="#2E2407"/>
        </linearGradient>

        <linearGradient id="spineBg" x1="0%" y1="0%" x2="0%" y2="100%">
            <stop offset="0%" stop-color="#2E2407"/>
            <stop offset="50%" stop-color="#8D6D16"/>
            <stop offset="100%" stop-color="#2E2407"/>
        </linearGradient>

        <linearGradient id="grad1" gradientTransform="rotate(90)">
            <stop offset="5%" stop-color="#66B6DD" />
            <stop offset="95%" stop-color="#3B76B3" />
        </linearGradient>

        <linearGradient id="grad2" gradientTransform="rotate(90)">
            <stop offset="5%" stop-color="#3B76B3" />
            <stop offset="95%" stop-color="#66B6DD" />
        </linearGradient>

        <linearGradient id="grad-navy" x1="0%" y1="0%" x2="0%" y2="100%">
            <stop offset="0%" stop-color="#002137"/>
            <stop offset="100%" stop-color="#335A8C"/>
        </linearGradient>
    </defs>

    <g id="front-cover">
        <rect x="2041.5" y="37.5" width="1800.0" height="2700.0" class="trim"/>
        <rect x="2041.5" y="37.5" width="1800.0" height="2700.0" fill="url(#backBg)"/>
        <rect x="2060.25" y="75" width="1762.5" height="2625.0" class="safe"/>

        <g id="front-text-overlay">
            <!-- Series -->
            <text x="2941.5" y="340" text-anchor="middle" class="series"
                  style="font-size:40px; opacity:0.75;">
                THE AI-AUGMENTED SERIES
            </text>

            <!-- Title -->
            <text x="2941.5" y="740" text-anchor="middle" class="title">
                <tspan x="2941.5" dy="0">AI-Augmented</tspan>
                <tspan x="2941.5" dy="170">Organizations</tspan>
            </text>

            <!-- Subtitle -->

            <text x="2941.5" y="1200" text-anchor="middle" class="subtitle">
                <tspan x="2941.5" dy="0">How Teams Deliver</tspan>
                <tspan x="2941.5" dy="84" class="subtitle-emphasis">Reliable, Defensible Results</tspan>
                <tspan x="2941.5" dy="80">with AI</tspan>
            </text>

            <!-- Author -->
            <text x="2941.5" y="2540" text-anchor="middle" class="author">
                Dr. Darren Pulsipher and Jeremy Harris
            </text>
        </g>
        
        <g id="front-graphic" transform="translate(2000,850)">
            <g transform="translate(130, 250) scale(1.3, 1.3)">
                <defs>
                    <linearGradient id="hexGrad" x1="300" y1="300" x2="900" y2="900" gradientUnits="userSpaceOnUse">
                        <stop offset="0%" stop-color="#F3D98B"/>
                        <stop offset="52%" stop-color="#C89A2D"/>
                        <stop offset="100%" stop-color="#171104"/>
                    </linearGradient>
                    <linearGradient id="connGrad" x1="350" y1="350" x2="850" y2="850" gradientUnits="userSpaceOnUse">
                        <stop offset="0%" stop-color="#F6E5B5" stop-opacity="0.92"/>
                        <stop offset="100%" stop-color="#2A1D07" stop-opacity="0.92"/>
                    </linearGradient>
                    <radialGradient id="coreGlow" cx="50%" cy="50%" r="50%">
                        <stop offset="0%" stop-color="#D2AA45" stop-opacity="0.34"/>
                        <stop offset="45%" stop-color="#6C4F12" stop-opacity="0.18"/>
                        <stop offset="100%" stop-color="#120D03" stop-opacity="0"/>
                    </radialGradient>
                    <radialGradient id="centerFill" cx="50%" cy="48%" r="58%">
                        <stop offset="0%" stop-color="#FFF3CF" stop-opacity="0.9"/>
                        <stop offset="55%" stop-color="#CDA34A" stop-opacity="0.24"/>
                        <stop offset="100%" stop-color="#1A1305" stop-opacity="0.02"/>
                    </radialGradient>
                    <radialGradient id="neighborGlow" cx="50%" cy="50%" r="50%">
                        <stop offset="0%" stop-color="#F2D183" stop-opacity="0.36"/>
                        <stop offset="55%" stop-color="#B88725" stop-opacity="0.14"/>
                        <stop offset="100%" stop-color="#120D03" stop-opacity="0"/>
                    </radialGradient>
                    <radialGradient id="outerGlow" cx="50%" cy="50%" r="50%">
                        <stop offset="0%" stop-color="#E7C36A" stop-opacity="0.16"/>
                        <stop offset="58%" stop-color="#8E6618" stop-opacity="0.08"/>
                        <stop offset="100%" stop-color="#120D03" stop-opacity="0"/>
                    </radialGradient>
                    <radialGradient id="hexRadStroke" cx="600" cy="620" r="430" gradientUnits="userSpaceOnUse">
                        <stop offset="0%" stop-color="#F6E2A4" stop-opacity="0.96"/>
                        <stop offset="45%" stop-color="#D4AA48" stop-opacity="0.74"/>
                        <stop offset="78%" stop-color="#6E4F14" stop-opacity="0.32"/>
                        <stop offset="100%" stop-color="#120D03" stop-opacity="0.06"/>
                    </radialGradient>
                    <radialGradient id="hexRadBStroke" cx="800" cy="200" r="430" gradientUnits="userSpaceOnUse">
                        <stop offset="0%" stop-color="#F6E2A4" stop-opacity="0.56"/>
                        <stop offset="45%" stop-color="#D4AA48" stop-opacity="0.54"/>
                        <stop offset="78%" stop-color="#6E4F14" stop-opacity="0.32"/>
                        <stop offset="100%" stop-color="#120D03" stop-opacity="0.06"/>
                    </radialGradient>
                    <filter id="softGlow" x="-50%" y="-50%" width="200%" height="200%">
                        <feGaussianBlur stdDeviation="7" result="blur"/>
                        <feMerge>
                            <feMergeNode in="blur"/>
                            <feMergeNode in="SourceGraphic"/>
                        </feMerge>
                    </filter>
                    <filter id="tightGlow" x="0%" y="0%" width="180%" height="180%">
                        <feGaussianBlur stdDeviation="3.5" result="blur"/>
                        <feMerge>
                            <feMergeNode in="blur"/>
                            <feMergeNode in="SourceGraphic"/>
                        </feMerge>
                    </filter>
                    <filter id="activeGlow" x="-60%" y="-60%" width="220%" height="220%">
                        <feGaussianBlur stdDeviation="15.5" result="blur"/>
                        <feMerge>
                            <feMergeNode in="blur"/>
                            <feMergeNode in="SourceGraphic"/>
                        </feMerge>
                    </filter>
                    <filter id="activeSoft" x="-60%" y="-60%" width="220%" height="220%">
                        <feGaussianBlur stdDeviation="2.8" result="blur"/>
                        <feMerge>
                            <feMergeNode in="blur"/>
                            <feMergeNode in="SourceGraphic"/>
                        </feMerge>
                    </filter>
                    <filter id="activeNodeGlow" x="-60%" y="-60%" width="220%" height="220%">
                        <feGaussianBlur in="SourceGraphic" stdDeviation="4.2" result="blur"/>
                        <feMerge>
                            <feMergeNode in="blur"/>
                            <feMergeNode in="SourceGraphic"/>
                        </feMerge>
                    </filter>
                    <filter id="shadow" x="-50%" y="-50%" width="200%" height="200%">
                        <feGaussianBlur in="SourceAlpha" stdDeviation="18" result="blur"/>
                        <feOffset in="blur" dx="0" dy="12" result="offsetBlur"/>
                        <feFlood flood-color="#0C1733" flood-opacity="0.5" result="shadowColor"/>
                        <feComposite in="shadowColor" in2="offsetBlur" operator="in" result="shadow"/>
                        <feMerge>
                            <feMergeNode in="shadow"/>
                            <feMergeNode in="SourceGraphic"/>
                        </feMerge>
                    </filter>
                    <style>
                        .hex { stroke:url(#hexRadStroke); stroke-width:6.5; stroke-linejoin:round; fill:none; opacity:0.52; }
                        .hex2 { stroke:url(#hexRadStroke); stroke-width:2.8; stroke-linejoin:round; fill:none; opacity:0.34; }
                        .hexb { stroke:url(#hexRadBStroke); stroke-width:6.5; stroke-linejoin:round; fill:none; opacity:0.52; }
                        .hexb2 { stroke:url(#hexRadBStroke); stroke-width:2.8; stroke-linejoin:round; fill:none; opacity:0.34; }
                        .activeHex { stroke:url(#hexGrad); stroke-width:7.0; stroke-linejoin:round; opacity:0.62; fill:url(#centerFill); fill-opacity:0.22; }
                        .activeHex2 { stroke:url(#hexGrad); stroke-width:3.0; stroke-linejoin:round; opacity:0.44; fill:url(#centerFill); fill-opacity:0.12; }
                        .centerHex { stroke:url(#hexGrad); stroke-width:9.5; stroke-linejoin:round; fill:none; opacity:1; }
                        .centerHex2 { stroke:url(#hexGrad); stroke-width:4.1; stroke-linejoin:round; fill:none; opacity:0.95; }
                        .conn { stroke:url(#connGrad); stroke-width:4; stroke-linecap:round; opacity:0.05; }
                        .connThin { stroke:url(#connGrad); stroke-width:8.3; stroke-linecap:round; opacity:0.03; }
                        .activeLineGlow { stroke:url(#connGrad); stroke-width:10.4; stroke-linecap:round; opacity:0.7; filter:url(#softGlow); }
                        .activeLine { stroke:#FFE2A3; stroke-width:5.4; stroke-linecap:round; opacity:0.82; }
                        .mesh { stroke:#C9A24A; stroke-width:1.6; stroke-linecap:round; opacity:0.22; }
                    </style>
                </defs>

                <g filter="url(#shadow)">
                    <g transform="translate(200.0 360.0) scale(0.9) translate(-600.0 -405.0)" >
                        <polygon points="600.0,285.0 703.9,345.0 703.9,465.0 600.0,525.0 496.1,465.0 496.1,345.0" class="hex"/>
                        <polygon points="600.0,311.4 681.1,358.2 681.1,451.8 600.0,498.6 518.9,451.8 518.9,358.2" class="hex2"/>
                    </g>
                    <g transform="translate(400.0 360.0) scale(0.9) translate(-600.0 -405.0)" >
                        <polygon points="600.0,285.0 703.9,345.0 703.9,465.0 600.0,525.0 496.1,465.0 496.1,345.0" class="hex"/>
                        <polygon points="600.0,311.4 681.1,358.2 681.1,451.8 600.0,498.6 518.9,451.8 518.9,358.2" class="hex2"/>
                    </g>
                    <g transform="translate(600.0 360.0) scale(0.9) translate(-600.0 -405.0)" filter="url(#activeNodeGlow)">
                        <polygon points="600.0,285.0 703.9,345.0 703.9,465.0 600.0,525.0 496.1,465.0 496.1,345.0" class="activeHex"/>
                        <polygon points="600.0,311.4 681.1,358.2 681.1,451.8 600.0,498.6 518.9,451.8 518.9,358.2" class="activeHex2"/>
                    </g>
                    <g transform="translate(800.0 360.0) scale(0.9) translate(-600.0 -405.0)" filter="url(#activeNodeGlow)">
                        <polygon points="600.0,285.0 703.9,345.0 703.9,465.0 600.0,525.0 496.1,465.0 496.1,345.0" class="hex"/>
                        <polygon points="600.0,311.4 681.1,358.2 681.1,451.8 600.0,498.6 518.9,451.8 518.9,358.2" class="hex2"/>
                    </g>
                    <g transform="translate(1000.0 360.0) scale(0.9) translate(-600.0 -405.0)" filter="url(#activeNodeGlow)">
                        <polygon points="600.0,285.0 703.9,345.0 703.9,465.0 600.0,525.0 496.1,465.0 496.1,345.0" class="hex"/>
                        <polygon points="600.0,311.4 681.1,358.2 681.1,451.8 600.0,498.6 518.9,451.8 518.9,358.2" class="hex2"/>
                    </g>
                    <g transform="translate(100.0 520.0) scale(0.9) translate(-600.0 -405.0)" filter="url(#activeNodeGlow)">
                        <polygon points="600.0,285.0 703.9,345.0 703.9,465.0 600.0,525.0 496.1,465.0 496.1,345.0" class="hex"/>
                        <polygon points="600.0,311.4 681.1,358.2 681.1,451.8 600.0,498.6 518.9,451.8 518.9,358.2" class="hex2"/>
                    </g>
                    <g transform="translate(300.0 520.0) scale(0.9) translate(-600.0 -405.0)" filter="url(#activeNodeGlow)">
                        <polygon points="600.0,285.0 703.9,345.0 703.9,465.0 600.0,525.0 496.1,465.0 496.1,345.0" class="activeHex"/>
                        <polygon points="600.0,311.4 681.1,358.2 681.1,451.8 600.0,498.6 518.9,451.8 518.9,358.2" class="activeHex2"/>
                    </g>
                    <g transform="translate(500.0 520.0) scale(0.9) translate(-600.0 -405.0)" filter="url(#softGlow)">
                        <polygon points="600.0,285.0 703.9,345.0 703.9,465.0 600.0,525.0 496.1,465.0 496.1,345.0" fill="url(#centerFill)" />
                        <polygon points="600.0,285.0 703.9,345.0 703.9,465.0 600.0,525.0 496.1,465.0 496.1,345.0" class="centerHex"/>
                        <polygon points="600.0,311.4 681.1,358.2 681.1,451.8 600.0,498.6 518.9,451.8 518.9,358.2" class="centerHex2"/>
                    </g>
                    <g transform="translate(700.0 520.0) scale(0.9) translate(-600.0 -405.0)" filter="url(#softGlow)">
                        <polygon points="600.0,285.0 703.9,345.0 703.9,465.0 600.0,525.0 496.1,465.0 496.1,345.0" fill="url(#centerFill)" />
                        <polygon points="600.0,285.0 703.9,345.0 703.9,465.0 600.0,525.0 496.1,465.0 496.1,345.0" class="centerHex"/>
                        <polygon points="600.0,311.4 681.1,358.2 681.1,451.8 600.0,498.6 518.9,451.8 518.9,358.2" class="centerHex2"/>
                    </g>
                    <g transform="translate(900.0 520.0) scale(0.9) translate(-600.0 -405.0)" filter="url(#activeNodeGlow)">
                        <polygon points="600.0,285.0 703.9,345.0 703.9,465.0 600.0,525.0 496.1,465.0 496.1,345.0" class="activeHex"/>
                        <polygon points="600.0,311.4 681.1,358.2 681.1,451.8 600.0,498.6 518.9,451.8 518.9,358.2" class="activeHex2"/>
                    </g>
                    <g transform="translate(1100.0 520.0) scale(0.9) translate(-600.0 -405.0)">
                        <polygon points="600.0,285.0 703.9,345.0 703.9,465.0 600.0,525.0 496.1,465.0 496.1,345.0" class="hex"/>
                        <polygon points="600.0,311.4 681.1,358.2 681.1,451.8 600.0,498.6 518.9,451.8 518.9,358.2" class="hex2"/>
                    </g>
                    <g transform="translate(200.0 690.0) scale(0.9) translate(-600.0 -405.0)" filter="url(#activeNodeGlow)">
                        <polygon points="600.0,285.0 703.9,345.0 703.9,465.0 600.0,525.0 496.1,465.0 496.1,345.0" class="hex"/>
                        <polygon points="600.0,311.4 681.1,358.2 681.1,451.8 600.0,498.6 518.9,451.8 518.9,358.2" class="hex2"/>
                    </g>
                    <g transform="translate(400.0 690.0) scale(0.9) translate(-600.0 -405.0)" filter="url(#activeNodeGlow)">
                        <polygon points="600.0,285.0 703.9,345.0 703.9,465.0 600.0,525.0 496.1,465.0 496.1,345.0" class="activeHex"/>
                        <polygon points="600.0,311.4 681.1,358.2 681.1,451.8 600.0,498.6 518.9,451.8 518.9,358.2" class="activeHex2"/>
                    </g>
                    <g transform="translate(600.0 690.0) scale(0.9) translate(-600.0 -405.0)" filter="url(#softGlow)">
                        <polygon points="600.0,285.0 703.9,345.0 703.9,465.0 600.0,525.0 496.1,465.0 496.1,345.0" fill="url(#centerFill)" />
                        <polygon points="600.0,285.0 703.9,345.0 703.9,465.0 600.0,525.0 496.1,465.0 496.1,345.0" class="centerHex"/>
                        <polygon points="600.0,311.4 681.1,358.2 681.1,451.8 600.0,498.6 518.9,451.8 518.9,358.2" class="centerHex2"/>
                    </g>
                    <g transform="translate(800.0 690.0) scale(0.9) translate(-600.0 -405.0)" filter="url(#activeNodeGlow)">
                        <polygon points="600.0,285.0 703.9,345.0 703.9,465.0 600.0,525.0 496.1,465.0 496.1,345.0" class="activeHex"/>
                        <polygon points="600.0,311.4 681.1,358.2 681.1,451.8 600.0,498.6 518.9,451.8 518.9,358.2" class="activeHex2"/>
                    </g>
                    <g transform="translate(1000.0 690.0) scale(0.9) translate(-600.0 -405.0)" filter="url(#activeNodeGlow)">
                        <polygon points="600.0,285.0 703.9,345.0 703.9,465.0 600.0,525.0 496.1,465.0 496.1,345.0" class="hex"/>
                        <polygon points="600.0,311.4 681.1,358.2 681.1,451.8 600.0,498.6 518.9,451.8 518.9,358.2" class="hex2"/>
                    </g>
                    <g transform="translate(100.0 850.0) scale(0.9) translate(-600.0 -405.0)" filter="url(#activeNodeGlow)">
                        <polygon points="600.0,285.0 703.9,345.0 703.9,465.0 600.0,525.0 496.1,465.0 496.1,345.0" class="hexb"/>
                        <polygon points="600.0,311.4 681.1,358.2 681.1,451.8 600.0,498.6 518.9,451.8 518.9,358.2" class="hexb2"/>
                    </g>
                    <g transform="translate(300.0 850.0) scale(0.9) translate(-600.0 -405.0)" filter="url(#activeNodeGlow)">
                        <polygon points="600.0,285.0 703.9,345.0 703.9,465.0 600.0,525.0 496.1,465.0 496.1,345.0" class="hexb"/>
                        <polygon points="600.0,311.4 681.1,358.2 681.1,451.8 600.0,498.6 518.9,451.8 518.9,358.2" class="hexb2"/>
                    </g>
                    <g transform="translate(500.0 850.0) scale(0.9) translate(-600.0 -405.0)" filter="url(#activeNodeGlow)">
                        <polygon points="600.0,285.0 703.9,345.0 703.9,465.0 600.0,525.0 496.1,465.0 496.1,345.0" class="activeHex"/>
                        <polygon points="600.0,311.4 681.1,358.2 681.1,451.8 600.0,498.6 518.9,451.8 518.9,358.2" class="activeHex2"/>
                    </g>
                    <g transform="translate(700.0 850.0) scale(0.9) translate(-600.0 -405.0)" filter="url(#activeNodeGlow)">
                        <polygon points="600.0,285.0 703.9,345.0 703.9,465.0 600.0,525.0 496.1,465.0 496.1,345.0" class="activeHex"/>
                        <polygon points="600.0,311.4 681.1,358.2 681.1,451.8 600.0,498.6 518.9,451.8 518.9,358.2" class="activeHex2"/>
                    </g>
                    <g transform="translate(900.0 850.0) scale(0.9) translate(-600.0 -405.0)" filter="url(#activeNodeGlow)">
                        <polygon points="600.0,285.0 703.9,345.0 703.9,465.0 600.0,525.0 496.1,465.0 496.1,345.0" class="hexb"/>
                        <polygon points="600.0,311.4 681.1,358.2 681.1,451.8 600.0,498.6 518.9,451.8 518.9,358.2" class="hexb2"/>
                    </g>
                </g>
            </g>
        </g>
    </g>
</svg>
